<svg width="35" height="24" viewBox="0 0 35 24" fill="none" xmlns="http://www.w3.org/2000/svg">
<path d="M7.77382 0.45537H11.1717V2.96926H7.77382V0.45537ZM11.1717 20.5665H16.2685V23.0804H11.1717V20.5665ZM24.7633 0.45537H28.1612V2.96926H24.7633V0.45537ZM19.6664 20.5665H24.7633V23.0804H19.6664V20.5665ZM31.5591 10.5109V7.99704H28.1612V5.48315H24.7633V2.96926H21.3654V5.48315H14.5696V2.96926H11.1717V5.48315H7.77382V7.99704H4.37592V10.5109H0.978027V20.5665H4.37592V15.5387H7.77382V20.5665H11.1717V16.7956H24.7633V20.5665H28.1612V15.5387H31.5591V20.5665H34.957V10.5109H31.5591ZM14.5696 11.7679H11.1717V7.99704H14.5696V11.7679ZM24.7633 11.7679H21.3654V7.99704H24.7633V11.7679Z" fill="#523857"/>
</svg>
